<?xml version="1.0" encoding="UTF-8"?><svg id="Layer_1" xmlns="http://www.w3.org/2000/svg" viewBox="0 0 192.48 192.36"><defs><style>.cls-1{fill:#1c8de0;}.cls-2{fill:#196fbd;}.cls-3{fill:#0082bd;}.cls-4{fill:#fdfdfd;}</style></defs><path d="M192.48,0v192.36H0V0h192.48ZM88.93,90.02c.64.89,1.49,1.8,2.3,2.53.44.39,1.08.47,1.17.55,9.88,9.13,18.95,19.87,28.86,29.06,7.84,6.25,19.74-.04,19.23-9.95-.45-8.75-16.35-18.8-21.53-25.84-9.21-12.53,11.96-24.28,18.68-32.88,8.96-11.48-5.45-25.78-17.15-16.37l-16.93,17.12c-9.32-9.65-21-22.2-30.98-30.79-12.89-11.09-27.7,4.12-17.53,16.37,5.46,6.58,20.44,16.3,20.44,25,0,11.92-23.6,21.38-23.92,33.08-.24,8.83,8.9,14.74,16.96,11.15,4.26-1.9,16.32-14.95,20.41-19.04ZM51.46,47.44c-1.41.02-3.41,1.15-4.06,2.43-3.09,6.03,8.46,9.7,8.46,14.95,0,3.56-5.9,7.05-7.94,9.8-3.31,4.46,1.77,9.61,6.38,6.37,1.71-1.2,12.28-11.78,13.46-13.48,1.26-1.83,1.12-3.83-.19-5.59-1.58-2.13-11.38-11.98-13.48-13.46-.72-.51-1.73-1.04-2.63-1.03ZM140.13,96.56c4.23.25,6.34-3.74,4.02-7.29-1.51-2.31-7.46-6.31-7.85-8.7-1.15-7.09,12.91-10.7,7.68-16.91-1.08-1.28-1.61-1.15-3.08-1.34-.2-.03-.23-.39-1.14-.24-.85.14-1.65.69-2.33,1.19-2.45,1.82-10.99,10.42-12.89,12.89-2.21,2.87-1.51,4.56.58,7.13s9.69,10.34,12.14,12.11c.95.69,1.69,1.08,2.89,1.16ZM55.9,136.27c-.59.77-2.51,5.13-3.35,4.92l-3.28-4.81-5-.19,5.36,9.04-5.37,9.04,5-.19,2.89-4.81,3.66,4.81,5,.19-5.37-9.04,5.37-9.04-4.92.08ZM83.57,145.29c0-5.11-4.14-9.25-9.25-9.25s-9.25,4.14-9.25,9.25,4.14,9.25,9.25,9.25,9.25-4.14,9.25-9.25ZM95.86,148.89l-4.04-12.32-4.44-.37,6.01,18.1,5.74-.4,5.96-17.7c-1.16.17-3.65-.43-4.44.37-1.02,1.04-3.03,9.64-3.99,11.78-.15.34-.16,1.17-.8.54ZM127.38,145.28c0-5.11-4.15-9.26-9.27-9.26s-9.27,4.15-9.27,9.26,4.15,9.26,9.27,9.26,9.27-4.15,9.27-9.26ZM136.66,136.19h-5.39l5.65,9.04-5.26,9.04,4.92-.08,2.97-4.91,3.27,4.99h5.39c-.43-2.17-5.23-7.01-5.39-8.68s5.8-8.64,5.01-9.4l-4.62.19-3.27,5.2-3.27-5.39Z"/><path class="cls-4" d="M103.55,54.25c1.18,1.23,2.31,2.59,3.46,3.85,1.72,3.7,2.53,6.24,1.26,10.3-1.52,4.9-14.98,17.25-19.36,21.63-4.09,4.09-16.15,17.14-20.41,19.04-8.06,3.59-17.2-2.33-16.96-11.15.32-11.71,23.92-21.16,23.92-33.08,0-8.7-14.98-18.41-20.44-25-10.17-12.25,4.65-27.46,17.53-16.37,9.97,8.58,21.66,21.14,30.98,30.79Z"/><path class="cls-1" d="M92.39,93.1c5.22-4.91,11.54-10.14,16.18-15.57,3.94-4.61,5.47-9.71,2.23-15.33-1.03-1.78-2.5-2.71-3.78-4.11-1.16-1.26-2.28-2.62-3.46-3.85l16.93-17.12c11.7-9.42,26.11,4.89,17.15,16.37-6.72,8.61-27.9,20.35-18.68,32.88,5.18,7.04,21.08,17.09,21.53,25.84.51,9.91-11.39,16.2-19.23,9.95-9.92-9.18-18.99-19.92-28.86-29.06Z"/><path class="cls-4" d="M51.46,47.44c.9-.02,1.91.52,2.63,1.03,2.09,1.48,11.89,11.33,13.48,13.46,1.31,1.76,1.45,3.76.19,5.59-1.18,1.7-11.75,12.28-13.46,13.48-4.61,3.24-9.68-1.91-6.38-6.37,2.04-2.75,7.94-6.24,7.94-9.8,0-5.25-11.54-8.93-8.46-14.95.65-1.27,2.65-2.4,4.06-2.43Z"/><path class="cls-1" d="M140.13,96.56l-3.84-4.43c-2.66-3.38-7.86-6.82-10.23-10.17-1.38-1.95-1.13-3.7.21-5.6,1.74-2.48,10.12-10.56,12.69-12.7.64-.53,1.39-.74,1.94-1.34,1.47.19,2.01.06,3.08,1.34,5.23,6.21-8.83,9.82-7.68,16.91.39,2.38,6.34,6.38,7.85,8.7,2.32,3.55.2,7.55-4.02,7.29Z"/><path class="cls-3" d="M127.38,145.28c0,5.11-4.15,9.26-9.27,9.26s-9.27-4.15-9.27-9.26,4.15-9.26,9.27-9.26,9.27,4.15,9.27,9.26ZM117.32,140.12c-5.22.75-5.02,9.27-.4,10.21,7.84,1.6,7.83-11.29.4-10.21Z"/><path class="cls-3" d="M83.57,145.29c0,5.11-4.14,9.25-9.25,9.25s-9.25-4.14-9.25-9.25,4.14-9.25,9.25-9.25,9.25,4.14,9.25,9.25ZM70.96,141.32c-2.27,2.27-1.77,7.99,1.78,8.92,4.68,1.23,6.96-2.57,6.08-6.85-.7-3.39-5.52-4.42-7.87-2.07Z"/><path class="cls-2" d="M107.02,58.09c1.28,1.4,2.76,2.32,3.78,4.11,3.24,5.62,1.7,10.73-2.23,15.33-4.64,5.43-10.96,10.66-16.18,15.57-.09-.08-.73-.16-1.17-.55-.81-.73-1.66-1.64-2.3-2.53,4.37-4.38,17.83-16.73,19.36-21.63,1.26-4.06.46-6.6-1.26-10.3Z"/><path class="cls-4" d="M136.66,136.19l3.27,5.39,3.27-5.2,4.62-.19c.79.76-5.16,7.79-5.01,9.4s4.96,6.5,5.39,8.68h-5.39l-3.27-4.99-2.97,4.91-4.92.08,5.26-9.04-5.65-9.04h5.39Z"/><path class="cls-3" d="M55.9,136.27l4.92-.08-5.37,9.04,5.37,9.04-5-.19-3.66-4.81-2.89,4.81-5,.19,5.37-9.04-5.36-9.04,5,.19,3.28,4.81c.84.21,2.75-4.15,3.35-4.92Z"/><path class="cls-3" d="M95.86,148.89c.65.63.65-.2.8-.54.97-2.14,2.98-10.75,3.99-11.78.78-.8,3.28-.2,4.44-.37l-5.96,17.7-5.74.4-6.01-18.1,4.44.37,4.04,12.32Z"/><path class="cls-2" d="M140.9,62.32c-.55.59-1.29.8-1.94,1.34-2.58,2.14-10.96,10.22-12.69,12.7-1.33,1.9-1.59,3.64-.21,5.6,2.37,3.35,7.57,6.79,10.23,10.17l3.84,4.43c-1.19-.07-1.93-.47-2.89-1.16-2.45-1.77-10.11-9.61-12.14-12.11s-2.79-4.26-.58-7.13c1.9-2.47,10.45-11.07,12.89-12.89.68-.51,1.48-1.05,2.33-1.19.91-.15.94.22,1.14.24Z"/><path d="M117.32,140.12c7.43-1.07,7.44,11.81-.4,10.21-4.62-.94-4.82-9.46.4-10.21Z"/><path d="M70.96,141.32c2.35-2.35,7.17-1.32,7.87,2.07.88,4.27-1.4,8.08-6.08,6.85-3.56-.94-4.06-6.65-1.78-8.92Z"/></svg>